<?xml version="1.0" encoding="utf-8" standalone="yes"?>
<!DOCTYPE svg PUBLIC "-//W3C//DTD SVG 1.1//EN" "http://www.w3.org/Graphics/SVG/1.1/DTD/svg11.dtd">
<svg width="866" height="721" viewBox="0 0 866 721" style="fill:none;stroke:none;fill-rule:evenodd;clip-rule:evenodd;stroke-linecap:round;stroke-linejoin:round;stroke-miterlimit:1.5;" version="1.1" xmlns="http://www.w3.org/2000/svg" xmlns:xlink="http://www.w3.org/1999/xlink"><style id="fontImports">@import url("https://fonts.googleapis.com/css2?family=Roboto:wght@400;700&amp;display=block");</style><g id="items" style="isolation: isolate"><g id="blend" style="mix-blend-mode:normal"><g id="g-root-0.cu_sy_dkgv19miophc-fill" data-item-order="-217364" transform="translate(248.00399780273438, 219.1943359375)"><g id="0.cu_sy_dkgv19miophc-fill" stroke="none" fill="#f0f0f0"><g><path d="M 147.40803 14.479068C 142.49003 20.189768 136.99603 24.055668 136.99603 24.055668C 136.99603 24.055668 133.70803 21.742168 129.94203 18.050868C 122.74803 20.088968 118.13803 22.482568 116.92203 25.194968C 112.27203 35.564968 148.80203 43.094968 219.75203 45.784968C 260.67203 47.334968 297.29203 51.054968 299.18203 59.344968C 301.18203 68.144968 259.26203 72.505268 213.52203 73.805268C 175.96803 74.872568 148.07803 77.638768 128.03703 81.537168C 121.62003 94.515868 106.99603 104.805668 106.99603 104.805668C 106.99603 104.805668 100.22303 100.040068 93.87313 92.904568C 88.32713 96.382168 85.46903 100.143968 84.80213 104.034968C 82.27723 118.765168 98.75223 136.465168 212.42203 141.805168C 269.00203 144.463168 319.17203 153.225168 321.62203 165.015168C 326.17203 178.225168 286.75203 189.018168 213.52203 191.865168C 154.44203 194.162168 109.10813 199.806168 76.40253 208.325168C 79.32693 213.573168 80.99493 219.629168 80.99493 226.079168L 80.99603 226.079168C 80.99603 252.618168 44.99603 277.806168 44.99603 277.806168C 44.99603 277.806168 23.75763 262.946168 13.90663 244.028168C 12.33453 246.980168 11.26983 250.037168 10.70213 253.195168C 2.50293 298.805168 65.99603 326.805168 207.47203 339.905168C 284.96103 347.080168 359.15203 362.805168 366.25203 393.975168C 371.92103 418.867168 345.23603 438.904168 296.99603 451.755168L 440.09603 451.755168C 456.26703 433.863168 462.99903 413.649168 458.75303 391.945168C 447.98203 336.905168 383.25303 302.477168 209.20203 293.395168C 130.05203 289.265168 77.02913 274.525168 80.11213 255.165168C 83.19513 235.805168 125.19203 223.305168 212.42203 217.785168C 333.48203 210.124168 377.89403 191.865168 373.51203 164.995168C 372.55403 159.116168 368.91803 153.582168 361.86603 148.566168C 354.41003 156.572168 346.99603 161.805168 346.99603 161.805168C 346.99603 161.805168 329.11703 149.183168 320.96403 133.158168C 296.62803 127.851168 262.62903 124.175168 216.47203 122.715168C 145.27303 120.463168 122.18203 113.205168 125.19203 104.024968C 128.18203 95.214968 168.59203 88.744968 218.00203 86.824968C 300.06203 83.634968 338.35203 72.744968 333.48203 59.344968C 332.50803 56.664768 330.06303 54.207868 326.07003 51.975568C 321.54503 56.854668 316.99603 60.055668 316.99603 60.055668C 316.99603 60.055668 307.31503 53.243968 302.15303 44.347768C 283.59003 40.633268 256.55603 38.080468 220.14203 36.704968C 178.50203 35.134968 149.36203 32.014968 151.49203 25.194968C 153.51703 18.731468 184.55403 10.044268 220.84503 10.000168C 192.73903 10.018868 166.52103 11.590668 147.40803 14.479068Z"></path></g></g></g><g id="g-root-1.cu_sy_90cnxmior29-fill" data-item-order="-217360" transform="translate(247, 399)"><g id="1.cu_sy_90cnxmior29-fill" stroke="none" fill="#ffe7e6"><g><path d="M 10.0011 46.2732C 10.0011 26.2399 26.0941 10 45.9463 10L 46.0537 10C 65.9059 10 81.9989 26.2399 81.9989 46.2732L 82 46.2732C 82 72.8129 46 98 46 98C 46 98 10 72.8129 10 46.2732L 10.0011 46.2732Z"></path></g></g></g><g id="g-root-2.cu_sy_1qehee5miornu-fill" data-item-order="-217356" transform="translate(555, 297)"><g id="2.cu_sy_1qehee5miornu-fill" stroke="none" fill="#fef2e6"><g><path d="M 10.0009 40.5024C 10.0009 23.6562 23.4117 10 39.9552 10L 40.0448 10C 56.5883 10 69.9991 23.6562 69.9991 40.5024L 70 40.5024C 70 62.8199 40 84 40 84C 40 84 10 62.8199 10 40.5024L 10.0009 40.5024Z"></path></g></g></g><g id="g-root-3.cu_sy_1lzadctmiopab-fill" data-item-order="-217352" transform="translate(321, 255)"><g id="3.cu_sy_1lzadctmiopab-fill" stroke="none" fill="#fffce6"><g><path d="M 10.0007 34.3195C 10.0007 20.8881 20.7294 10 33.9642 10L 34.0358 10C 47.2706 10 57.9993 20.8881 57.9993 34.3195L 58 34.3195C 58 52.1132 34 69 34 69C 34 69 10 52.1132 10 34.3195L 10.0007 34.3195Z"></path></g></g></g><g id="g-root-4.cu_sy_18ntuzhmioqv8-fill" data-item-order="-217348" transform="translate(537, 225)"><g id="4.cu_sy_18ntuzhmioqv8-fill" stroke="none" fill="#f5fbe9"><g><path d="M 10.0005 28.2396C 10.0005 18.1661 18.047 10 27.9731 10L 28.0269 10C 37.953 10 45.9995 18.1661 45.9995 28.2396L 46 28.2396C 46 41.5849 28 54.25 28 54.25C 28 54.25 10 41.5849 10 28.2396L 10.0005 28.2396Z"></path></g></g></g><g id="g-root-5.cu_sy_zs6uqlmiornx-fill" data-item-order="-217344" transform="translate(357, 189)"><g id="5.cu_sy_zs6uqlmiornx-fill" stroke="none" fill="#e9fbf3"><g><path d="M 10.0005 28.2396C 10.0005 18.1661 18.047 10 27.9731 10L 28.0269 10C 37.953 10 45.9995 18.1661 45.9995 28.2396L 46 28.2396C 46 41.5849 28 54.25 28 54.25C 28 54.25 10 41.5849 10 28.2396L 10.0005 28.2396Z"></path></g></g></g><g id="g-root-tx_ensuresu_dgq0ilmiq5mv-fill" data-item-order="0" transform="translate(195, 87)"><g id="tx_ensuresu_dgq0ilmiq5mv-fill" stroke="none" fill="#3bc482"><g><text style="font: bold 20px &quot;Roboto&quot;, sans-serif; white-space: pre;" font-weight="bold" font-size="20px" font-family="'Roboto', sans-serif"><tspan x="78.15" y="34" dominant-baseline="ideographic">Ensure </tspan><tspan x="17.6" y="58" dominant-baseline="ideographic">Sustainability</tspan></text></g></g></g><g id="g-root-tx_engaging_1unfokdmiq6mi-fill" data-item-order="0" transform="translate(171, 147)"><g id="tx_engaging_1unfokdmiq6mi-fill" stroke="none" fill="#484848"><g><text style="font: 20px &quot;Roboto&quot;, sans-serif; white-space: pre;" font-size="20px" font-family="'Roboto', sans-serif"><tspan x="81.18" y="34" dominant-baseline="ideographic">Engaging </tspan><tspan x="17.78" y="58" dominant-baseline="ideographic">communities for </tspan><tspan x="33.75" y="82" dominant-baseline="ideographic">market access</tspan></text></g></g></g><g id="g-root-tx_diversif_18iu2almiq4um-fill" data-item-order="0" transform="translate(603, 147)"><g id="tx_diversif_18iu2almiq4um-fill" stroke="none" fill="#93c131"><g><text style="font: bold 20px &quot;Roboto&quot;, sans-serif; white-space: pre;" font-weight="bold" font-size="20px" font-family="'Roboto', sans-serif"><tspan x="12" y="34" dominant-baseline="ideographic">Diversify Income</tspan></text></g></g></g><g id="g-root-1_142zi8tmsfy86-fill" data-item-order="0" transform="translate(363, 195)"></g><g id="g-root-tx_generati_v496hpmiq60x-fill" data-item-order="0" transform="translate(603, 183)"><g id="tx_generati_v496hpmiq60x-fill" stroke="none" fill="#484848"><g><text style="font: 20px &quot;Roboto&quot;, sans-serif; white-space: pre;" font-size="20px" font-family="'Roboto', sans-serif"><tspan x="12" y="34" dominant-baseline="ideographic">Generating income </tspan><tspan x="12" y="58" dominant-baseline="ideographic">from various </tspan><tspan x="12" y="82" dominant-baseline="ideographic">interventions</tspan></text></g></g></g><g id="g-root-tx_addressi_v308bhmiq3uu-fill" data-item-order="0" transform="translate(15, 459)"><g id="tx_addressi_v308bhmiq3uu-fill" stroke="none" fill="#484848"><g><text style="font: 20px &quot;Roboto&quot;, sans-serif; white-space: pre;" font-size="20px" font-family="'Roboto', sans-serif"><tspan x="37.52" y="34" dominant-baseline="ideographic">Addressing urgent </tspan><tspan x="23.25" y="58" dominant-baseline="ideographic">needs for resources</tspan></text></g></g></g><g id="g-root-tx_implemen_1upb3tpmiq5mt-fill" data-item-order="0" transform="translate(99, 243)"><g id="tx_implemen_1upb3tpmiq5mt-fill" stroke="none" fill="#e3cd09"><g><text style="font: bold 20px &quot;Roboto&quot;, sans-serif; white-space: pre;" font-weight="bold" font-size="20px" font-family="'Roboto', sans-serif"><tspan x="18.55" y="34" dominant-baseline="ideographic">Implement Pumpkin </tspan><tspan x="69.23" y="58" dominant-baseline="ideographic">Plus Approach</tspan></text></g></g></g><g id="g-root-spli_1ulj47xmssjyf-fill" data-item-order="0" transform="translate(543, 231)"></g><g id="g-root-pump_1uo10kdmshc00-fill" data-item-order="0" transform="translate(330, 264)"></g><g id="g-root-tx_providin_1lqjq59miq60w-fill" data-item-order="0" transform="translate(111, 303)"><g id="tx_providin_1lqjq59miq60w-fill" stroke="none" fill="#484848"><g><text style="font: 20px &quot;Roboto&quot;, sans-serif; white-space: pre;" font-size="20px" font-family="'Roboto', sans-serif"><tspan x="11.93" y="34" dominant-baseline="ideographic">Providing economic </tspan><tspan x="69.77" y="58" dominant-baseline="ideographic">opportunities </tspan><tspan x="50.28" y="82" dominant-baseline="ideographic">through diverse </tspan><tspan x="108.43" y="106" dominant-baseline="ideographic">activities</tspan></text></g></g></g><g id="g-root-shie_v8l9ulmssl55-fill" data-item-order="0" transform="translate(567, 309)"></g><g id="g-root-tx_securere_deul99miq6mk-fill" data-item-order="0" transform="translate(651, 315)"><g id="tx_securere_deul99miq6mk-fill" stroke="none" fill="#dd8433"><g><text style="font: bold 20px &quot;Roboto&quot;, sans-serif; white-space: pre;" font-weight="bold" font-size="20px" font-family="'Roboto', sans-serif"><tspan x="12" y="34" dominant-baseline="ideographic">Secure Resources</tspan></text></g></g></g><g id="g-root-tx_negotiat_8vwpp9miq68f-fill" data-item-order="0" transform="translate(651, 351)"><g id="tx_negotiat_8vwpp9miq68f-fill" stroke="none" fill="#484848"><g><text style="font: 20px &quot;Roboto&quot;, sans-serif; white-space: pre;" font-size="20px" font-family="'Roboto', sans-serif"><tspan x="12" y="34" dominant-baseline="ideographic">Negotiating access </tspan><tspan x="12" y="58" dominant-baseline="ideographic">to sandbar lands</tspan></text></g></g></g><g id="g-root-tx_identify_14154wtmiq6mj-fill" data-item-order="0" transform="translate(75, 423)"><g id="tx_identify_14154wtmiq6mj-fill" stroke="none" fill="#e15e5a"><g><text style="font: bold 20px &quot;Roboto&quot;, sans-serif; white-space: pre;" font-weight="bold" font-size="20px" font-family="'Roboto', sans-serif"><tspan x="15.1" y="34" dominant-baseline="ideographic">Identify Crisis</tspan></text></g></g></g><g id="g-root-labo_1q87fa5mshc74-fill" data-item-order="0" transform="translate(259, 411)"></g><g id="g-root-tx_agricult_5vz8dmiq420-fill" data-item-order="0" transform="translate(255, 39)"><g id="tx_agricult_5vz8dmiq420-fill" stroke="none" fill="#484848"><g><text style="font: 20px &quot;Roboto&quot;, sans-serif; white-space: pre;" font-size="20px" font-family="'Roboto', sans-serif"><tspan x="17.34" y="34" dominant-baseline="ideographic">Agricultural Business Model Implementation</tspan></text></g></g></g><g id="g-root-0.cu_sy_dkgv19miophc-stroke" data-item-order="-217364" transform="translate(248.00399780273438, 219.1943359375)"><g id="0.cu_sy_dkgv19miophc-stroke" fill="none" stroke-linecap="round" stroke-linejoin="round" stroke-miterlimit="4" stroke="#484848" stroke-width="2"><g><path d="M 296.996002 451.754761C 345.235626 438.904663 371.921417 418.867004 366.2518 393.974976C 359.152313 362.805176 284.96109 347.079712 207.47232 339.905029C 65.996002 326.805664 2.502991 298.805206 10.702087 253.195007C 11.264099 250.069092 12.312805 247.042297 13.85849 244.118713M 440.096283 451.754761C 456.267303 433.863525 462.999481 413.648926 458.752472 391.945007C 447.982513 336.904907 383.252472 302.476807 209.202301 293.394989C 130.052307 289.265015 77.029114 274.524811 80.112091 255.164978C 83.195099 235.805206 125.192291 223.305206 212.422302 217.785004C 333.48233 210.123901 377.894012 191.86499 373.512298 164.994995C 372.551727 159.104797 368.903595 153.560486 361.82492 148.536682M 129.996002 18.035706C 122.770813 20.077194 118.141296 22.475906 116.922088 25.195007C 112.272095 35.565002 148.802307 43.095001 219.752289 45.785004C 260.672302 47.334991 297.292267 51.054993 299.182281 59.345001C 301.182281 68.144989 259.262298 72.505188 213.522308 73.805206C 175.942016 74.873291 148.040008 77.642517 127.996002 81.545196M 147.496002 14.465698C 166.7164 11.568497 193.098297 10 221.352295 10L 221.122284 10C 184.712311 10 153.522095 18.714996 151.492096 25.195007C 149.362091 32.014999 178.502289 35.134994 220.142303 36.705002C 256.593414 38.081802 283.645416 40.638504 302.209137 44.3591M 325.996002 51.934509C 330.033233 54.177704 332.502106 56.6483 333.48233 59.345001C 338.352325 72.744995 300.062286 83.63501 218.002289 86.825012C 168.592315 88.744995 128.182098 95.214996 125.192108 104.024994C 122.182098 113.205017 145.273498 120.463013 216.47232 122.714996C 262.649597 124.175598 296.658478 127.854706 320.996002 133.165588M 93.815002 92.941101C 88.30719 96.408508 85.466797 100.157593 84.802093 104.035004C 82.277313 118.764801 98.752197 136.464905 212.422302 141.805206C 269.002228 144.463379 319.172272 153.225006 321.622284 165.015015C 326.172272 178.225006 286.752228 189.018005 213.522308 191.86499C 154.487213 194.160095 109.177215 199.79718 76.477203 208.305695M 412.331451 418.465454C 410.691498 422.595459 408.351471 426.725464 405.361481 430.735474M 414.251495 394.085449C 415.201446 398.085449 415.531463 402.145386 415.231476 406.175415M 401.761505 371.325439C 404.931488 374.905395 407.601471 378.635437 409.681488 382.405395M 377.021454 352.495422C 382.031463 355.505432 386.661468 358.695435 390.761505 361.975464M 342.641449 337.465454C 349.041473 339.79541 355.171478 342.31543 360.87149 344.975464M 301.231476 325.745422C 308.581451 327.31543 315.791473 329.095459 322.661468 331.04541M 255.161468 318.805786C 263.091461 319.585815 270.981476 320.445435 278.64151 321.615417M 206.741485 314.805817C 206.741485 314.805817 222.999359 315.706818 231.12149 316.085815M 158.091461 310.845428C 165.861481 311.665436 173.931488 312.30542 182.071472 312.735443M 115.481476 303.685425C 122.101471 305.215424 129.13147 306.605438 136.38147 307.795441M 79.741485 293.80542C 84.641479 295.865417 90.041473 297.835419 95.811462 299.645416M 56.361481 280.385437C 59.221466 282.765442 62.641479 285.105438 66.531463 287.335419M 111.271484 215.735413C 105.841461 217.105408 100.611481 218.605408 95.711487 220.185425M 146.161468 208.925415C 140.021484 209.81543 133.971466 210.835449 128.171478 211.965424M 184.401459 205.115417C 177.87149 205.495422 171.341461 206.005432 164.991485 206.635437M 223.721466 203.185425L 204.111481 204.375427M 261.561493 200.835449C 255.531463 201.475433 249.271454 201.995422 242.971466 202.385437M 295.1315 195.695435C 290.051483 196.755432 284.651459 197.735413 279.081451 198.585449M 322.681488 188.31543C 318.951446 189.695435 313.831451 191.015442 309.421478 192.245422M 339.361481 180.425415C 337.221466 181.985413 334.651459 183.535431 331.711456 185.005432M 347.241485 170.81543C 346.751495 172.435425 345.851471 174.06543 344.551483 175.665436M 345.431488 161.245422C 346.271454 162.475433 346.891449 163.735413 347.261505 164.995422C 347.361481 165.325439 347.441498 165.655426 347.501495 165.975433M 316.401459 144.735413C 320.011505 145.885437 323.391449 147.105408 326.441498 148.375427M 291.981476 138.695435C 296.461456 139.545441 300.791473 140.485413 304.851471 141.495422M 263.161468 134.545441C 268.221466 135.06543 273.221466 135.685425 278.011505 136.375427M 231.661468 132.455444C 237.031463 132.625427 242.401459 132.885437 247.63147 133.235413M 199.011474 131.925415C 204.411468 132.115417 209.941498 132.205444 215.451477 132.215424M 167.681488 129.755432C 172.611481 130.285431 177.751495 130.735413 182.961456 131.095428M 140.681488 125.675415C 144.691467 126.495422 149.011474 127.255432 153.501465 127.935425M 120.061462 120.085419C 122.87149 121.115417 126.041473 122.105438 129.461487 123.035431M 107.231476 113.525421C 108.681488 114.675415 110.491485 115.80542 112.62149 116.895447M 102.811462 106.535431C 102.851471 107.705444 103.231476 108.895447 103.961487 110.045441M 135.321472 87.965424C 131.951477 88.765442 128.751465 89.615417 125.841461 90.505432M 157.811462 83.825439C 153.751465 84.395447 149.791473 85.045441 146.041473 85.725433M 183.751495 81.105438C 179.231476 81.435425 174.761474 81.825439 170.441498 82.275421M 211.601471 79.935425C 206.901459 79.995422 202.171478 80.125427 197.551483 80.325439M 239.351471 79.445435C 234.841461 79.645447 230.221466 79.775421 225.601471 79.845428M 265.261505 77.515442C 261.221466 77.955444 256.981476 78.335419 252.671478 78.655426M 287.291473 74.265442C 284.041473 74.905426 280.541473 75.495422 276.8815 76.035431M 303.791473 69.995422C 301.571441 70.765442 299.061493 71.525421 296.311493 72.235413M 313.671478 65.085419C 312.611481 65.935425 311.241485 66.785431 309.601471 67.595428M 316.461456 59.92543C 316.581451 60.785431 316.411468 61.655426 315.951446 62.505432M 302.041473 50.365433C 304.241485 51.06543 306.231476 51.805435 307.951446 52.56543M 286.351471 46.555435C 289.341461 47.115433 292.181488 47.715424 294.791473 48.355438M 266.541473 43.695435C 270.101471 44.085434 273.581451 44.525421 276.8815 44.995422M 243.891479 41.92543C 247.821472 42.125427 251.721466 42.375427 255.491485 42.665436M 219.791473 41.335434L 219.941498 41.335434C 223.951477 41.335434 227.981476 41.385437 231.931488 41.475433M 195.411468 40.725433C 199.341461 40.92543 203.391479 41.075424 207.461456 41.185425M 173.141479 38.955429C 176.571472 39.335434 180.181488 39.685425 183.891479 39.975433M 154.761474 36.185425C 157.421478 36.715424 160.311493 37.215424 163.37149 37.67543M 141.591461 32.685425C 143.291473 33.31543 145.271484 33.92543 147.461487 34.505432M 134.491485 28.745422C 135.141479 29.42543 136.071472 30.095428 137.251465 30.755432M 133.741485 24.665436C 133.641479 24.835434 133.561462 25.005432 133.491485 25.185425C 133.301483 25.685425 133.241485 26.195435 133.331482 26.705429M 149.801483 17.265427C 147.591461 17.805435 145.571472 18.365433 143.781463 18.945435M 165.12149 14.395431C 162.261474 14.81543 159.511474 15.265427 156.961487 15.735428M 183.861481 12.31543C 180.531463 12.585434 177.251495 12.905426 174.13147 13.255432M 394.261505 442.715454C 390.768463 445.827393 386.821564 448.889038 382.496002 451.840088"></path></g></g></g><g id="g-root-1.cu_sy_90cnxmior29-stroke" data-item-order="-217360" transform="translate(247, 399)"><g id="1.cu_sy_90cnxmior29-stroke" fill="none" stroke-linecap="round" stroke-linejoin="round" stroke-miterlimit="4" stroke="#e15e5a" stroke-width="2"><g><path d="M 10.0011 46.2732C 10.0011 26.2399 26.0941 10 45.9463 10L 46.0537 10C 65.9059 10 81.9989 26.2399 81.9989 46.2732L 82 46.2732C 82 72.8129 46 98 46 98C 46 98 10 72.8129 10 46.2732L 10.0011 46.2732Z"></path></g></g></g><g id="g-root-2.cu_sy_1qehee5miornu-stroke" data-item-order="-217356" transform="translate(555, 297)"><g id="2.cu_sy_1qehee5miornu-stroke" fill="none" stroke-linecap="round" stroke-linejoin="round" stroke-miterlimit="4" stroke="#dd8433" stroke-width="2"><g><path d="M 10.0009 40.5024C 10.0009 23.6562 23.4117 10 39.9552 10L 40.0448 10C 56.5883 10 69.9991 23.6562 69.9991 40.5024L 70 40.5024C 70 62.8199 40 84 40 84C 40 84 10 62.8199 10 40.5024L 10.0009 40.5024Z"></path></g></g></g><g id="g-root-3.cu_sy_1lzadctmiopab-stroke" data-item-order="-217352" transform="translate(321, 255)"><g id="3.cu_sy_1lzadctmiopab-stroke" fill="none" stroke-linecap="round" stroke-linejoin="round" stroke-miterlimit="4" stroke="#e3cd09" stroke-width="2"><g><path d="M 10.0007 34.3195C 10.0007 20.8881 20.7294 10 33.9642 10L 34.0358 10C 47.2706 10 57.9993 20.8881 57.9993 34.3195L 58 34.3195C 58 52.1132 34 69 34 69C 34 69 10 52.1132 10 34.3195L 10.0007 34.3195Z"></path></g></g></g><g id="g-root-4.cu_sy_18ntuzhmioqv8-stroke" data-item-order="-217348" transform="translate(537, 225)"><g id="4.cu_sy_18ntuzhmioqv8-stroke" fill="none" stroke-linecap="round" stroke-linejoin="round" stroke-miterlimit="4" stroke="#93c131" stroke-width="2"><g><path d="M 10.0005 28.2396C 10.0005 18.1661 18.047 10 27.9731 10L 28.0269 10C 37.953 10 45.9995 18.1661 45.9995 28.2396L 46 28.2396C 46 41.5849 28 54.25 28 54.25C 28 54.25 10 41.5849 10 28.2396L 10.0005 28.2396Z"></path></g></g></g><g id="g-root-5.cu_sy_zs6uqlmiornx-stroke" data-item-order="-217344" transform="translate(357, 189)"><g id="5.cu_sy_zs6uqlmiornx-stroke" fill="none" stroke-linecap="round" stroke-linejoin="round" stroke-miterlimit="4" stroke="#3bc482" stroke-width="2"><g><path d="M 10.0005 28.2396C 10.0005 18.1661 18.047 10 27.9731 10L 28.0269 10C 37.953 10 45.9995 18.1661 45.9995 28.2396L 46 28.2396C 46 41.5849 28 54.25 28 54.25C 28 54.25 10 41.5849 10 28.2396L 10.0005 28.2396Z"></path></g></g></g><g id="g-root-tx_ensuresu_dgq0ilmiq5mv-stroke" data-item-order="0" transform="translate(195, 87)"></g><g id="g-root-tx_engaging_1unfokdmiq6mi-stroke" data-item-order="0" transform="translate(171, 147)"></g><g id="g-root-tx_diversif_18iu2almiq4um-stroke" data-item-order="0" transform="translate(603, 147)"></g><g id="g-root-1_142zi8tmsfy86-stroke" data-item-order="0" transform="translate(363, 195)"><g id="1_142zi8tmsfy86-stroke" fill="none" stroke-linecap="round" stroke-linejoin="round" stroke-miterlimit="4" stroke="#3bc482" stroke-width="2"><g><path d="M 12.5 26.5L 12.5 18.338M 31.5 18.338L 31.5 26.5M 30.882 10.5L 13.118 10.5C 12.739334 10.500202 12.393264 10.714271 12.224 11.053L 10.5 14.5L 33.5 14.5L 31.776 11.053C 31.606736 10.714271 31.260666 10.500202 30.882 10.5ZM 33.5 15.5C 33.543061 16.706435 32.82423 17.810079 31.70337 18.258424C 30.582509 18.706768 29.300843 18.403323 28.5 17.5C 27.84324 18.610639 26.696355 19.341652 25.412273 19.468085C 24.12819 19.594517 22.860758 19.101222 22 18.14C 21.139242 19.101222 19.871809 19.594517 18.587727 19.468085C 17.303644 19.341652 16.156759 18.610639 15.5 17.5C 14.698199 18.400877 13.417833 18.702703 12.298079 18.254801C 11.178326 17.8069 10.45932 16.705325 10.5 15.5L 10.5 14.5L 33.5 14.5ZM 15.5 17.5L 15.5 14.5L 16.5 10.5M 22 18.146L 22 14.5L 22 10.5M 28.5 17.5L 28.5 14.5L 27.5 10.5M 11.5 26.5L 32.5 26.5C 32.5 26.5 33.5 26.5 33.5 27.5L 33.5 30.5C 33.5 30.5 33.5 31.5 32.5 31.5L 11.5 31.5C 11.5 31.5 10.5 31.5 10.5 30.5L 10.5 27.5C 10.5 27.5 10.5 26.5 11.5 26.5M 12.5 31.5L 12.5 33.5M 31.5 31.5L 31.5 33.5M 14.5 25C 14.5 25.828428 15.171573 26.5 16 26.5C 16.828427 26.5 17.5 25.828428 17.5 25C 17.5 24.171573 16.828427 23.5 16 23.5C 15.171573 23.5 14.5 24.171573 14.5 25M 17.5 25C 17.5 25.828428 18.171573 26.5 19 26.5C 19.828427 26.5 20.5 25.828428 20.5 25C 20.5 24.171573 19.828427 23.5 19 23.5C 18.171573 23.5 17.5 24.171573 17.5 25M 23.5 25C 23.5 25.828428 24.171573 26.5 25 26.5C 25.828428 26.5 26.5 25.828428 26.5 25C 26.5 24.171573 25.828428 23.5 25 23.5C 24.171573 23.5 23.5 24.171573 23.5 25M 27.913 23.5C 28.134575 22.878083 27.923468 22.184413 27.393005 21.791366C 26.862542 21.39832 26.137459 21.39832 25.606996 21.791366C 25.076533 22.184413 24.865426 22.878083 25.087 23.5M 26.5 25C 26.500001 25.828428 27.171573 26.5 28.000001 26.5C 28.828428 26.5 29.500001 25.828428 29.500001 25C 29.500001 24.171573 28.828428 23.5 28.000001 23.5C 27.171573 23.5 26.500001 24.171573 26.500001 25"></path></g></g></g><g id="g-root-tx_generati_v496hpmiq60x-stroke" data-item-order="0" transform="translate(603, 183)"></g><g id="g-root-tx_addressi_v308bhmiq3uu-stroke" data-item-order="0" transform="translate(15, 459)"></g><g id="g-root-tx_implemen_1upb3tpmiq5mt-stroke" data-item-order="0" transform="translate(99, 243)"></g><g id="g-root-spli_1ulj47xmssjyf-stroke" data-item-order="0" transform="translate(543, 231)"><g id="spli_1ulj47xmssjyf-stroke" fill="none" stroke-linecap="round" stroke-linejoin="round" stroke-miterlimit="4" stroke="#93c131" stroke-width="2"><g><path d="M 19.693 15.5C 19.498231 15.500193 19.318335 15.395867 19.221769 15.226722C 19.125204 15.057577 19.126819 14.849625 19.226 14.682L 21.532 10.767C 21.629957 10.601696 21.807852 10.50033 22 10.50033C 22.192148 10.50033 22.370044 10.601696 22.468 10.767L 24.774 14.682C 24.873182 14.849625 24.874797 15.057577 24.778231 15.226722C 24.681666 15.395867 24.501769 15.500193 24.307 15.5ZM 15.607 19.691C 15.675491 19.525209 15.64992 19.335432 15.53999 19.193681C 15.430061 19.05193 15.252621 18.979929 15.075 19.005L 10.93 19.588C 10.753363 19.612075 10.602904 19.728376 10.535101 19.893248C 10.467297 20.058121 10.492405 20.246623 10.601 20.388L 13.119 23.731C 13.226817 23.874703 13.40344 23.949518 13.581673 23.92698C 13.759906 23.904443 13.912348 23.788018 13.981 23.622L 14.794 21.659ZM 14.839 21.612C 19.173673 23.40742 21.999978 27.637209 22.000001 32.329001L 22 33.5M 28.393 19.691C 28.324509 19.525209 28.35008 19.335432 28.46001 19.193681C 28.569939 19.05193 28.747379 18.979929 28.925 19.005L 33.07 19.588C 33.246637 19.612075 33.397096 19.728376 33.464899 19.893248C 33.532703 20.058121 33.507595 20.246623 33.399 20.388L 30.881 23.731C 30.773183 23.874703 30.59656 23.949518 30.418327 23.92698C 30.240094 23.904443 30.087652 23.788018 30.019 23.622L 29.206 21.659ZM 29.161 21.612C 24.826329 23.40742 22.000023 27.637209 22.000001 32.329001L 22 33.5M 22 15.5L 22 33"></path></g></g></g><g id="g-root-pump_1uo10kdmshc00-stroke" data-item-order="0" transform="translate(330, 264)"><g id="pump_1uo10kdmshc00-stroke" fill="none" stroke-linecap="round" stroke-linejoin="round" stroke-miterlimit="4" stroke="#e3cd09" stroke-width="2"><g><path d="M 25 17.98L 25 14.625C 24.999735 14.057099 25.192829 13.50603 25.547501 13.0625L 27.5 10.625M 22.174999 19.213749C 21.159866 18.388096 19.859715 17.996792 18.557501 18.125C 14.89375 18.584999 12.5225 22.125 13.26 27.98625C 13.997499 33.8475 17.565001 39.813751 21.22875 39.352501C 21.934721 39.259964 22.608168 38.999332 23.192501 38.592499M 27.825001 19.213749C 28.840134 18.388096 30.140285 17.996792 31.442499 18.125C 35.106247 18.584999 37.477501 22.125 36.740002 27.98625C 36.002499 33.8475 32.435001 39.813751 28.77125 39.352501C 28.065281 39.259964 27.391834 38.999332 26.807501 38.592499M 30.348749 27.34C 30.348749 33.25 27.953751 39.375 25 39.375C 22.046249 39.375 19.651251 33.25 19.651251 27.34C 19.651251 21.43 22.046249 17.98 25 17.98C 27.953751 17.98 30.348749 21.432499 30.348749 27.34Z"></path></g></g></g><g id="g-root-tx_providin_1lqjq59miq60w-stroke" data-item-order="0" transform="translate(111, 303)"></g><g id="g-root-shie_v8l9ulmssl55-stroke" data-item-order="0" transform="translate(567, 309)"><g id="shie_v8l9ulmssl55-stroke" fill="none" stroke-linecap="round" stroke-linejoin="round" stroke-miterlimit="4" stroke="#dd8433" stroke-width="2"><g><path d="M 35.5 30.25L 35.5 39.25M 40 34.75L 31 34.75M 36.302498 45.099998L 37.132 44.785C 41.077 43.285 44.5 39.499001 44.5 35.278L 44.5 30.184C 44.500278 29.560123 44.130211 28.995594 43.557999 28.747C 40.968987 27.779449 38.230797 27.271812 35.467003 27.247002C 32.724529 27.270422 30.007769 27.778229 27.441999 28.746998C 26.869789 28.995594 26.499723 29.560123 26.5 30.184L 26.5 35.273502C 26.5 39.494499 29.857 43.2775 33.802002 44.780502L 34.6315 45.095497C 35.168987 45.302464 35.763905 45.304066 36.302498 45.099998ZM 22 45.25L 11.5 45.25L 11.5 24.25C 11.5 23.421572 12.171573 22.75 13 22.75L 20.5 22.75C 21.328426 22.75 22 23.421572 22 24.25ZM 20.5 22.75L 20.5 16.75L 32.950001 11.218C 33.181561 11.116938 33.448444 11.139256 33.660004 11.277374C 33.871563 11.415492 33.999367 11.650846 34 11.9035L 34 24.25M 19 45.25L 19 41.5C 19 41.085785 18.664213 40.75 18.25 40.75L 15.25 40.75C 14.835787 40.75 14.5 41.085785 14.5 41.5L 14.5 45.25M 11.5 27.25L 17.5 27.25M 29.5 18.25L 34 18.25M 26.5 21.25L 34 21.25M 11.5 30.25L 14.5 30.25M 23.5 15.4165L 23.5 10.75M 22 45.25L 28 45.25"></path></g></g></g><g id="g-root-tx_securere_deul99miq6mk-stroke" data-item-order="0" transform="translate(651, 315)"></g><g id="g-root-tx_negotiat_8vwpp9miq68f-stroke" data-item-order="0" transform="translate(651, 351)"></g><g id="g-root-tx_identify_14154wtmiq6mj-stroke" data-item-order="0" transform="translate(75, 423)"></g><g id="g-root-labo_1q87fa5mshc74-stroke" data-item-order="0" transform="translate(259, 411)"><g id="labo_1q87fa5mshc74-stroke" fill="none" stroke-linecap="round" stroke-linejoin="round" stroke-miterlimit="4" stroke="#e15e5a" stroke-width="2"><g><path d="M 11.732 12.352C 19.001999 12.352 24.647999 17.978001 24.552 25.138C 25.5 27.49 27.438 29.004 28.416 31.643999C 28.546675 32.000576 28.501457 32.397903 28.294001 32.716C 28.192781 32.870064 28.05547 32.997074 27.893999 33.085999C 27.73465 33.173573 27.555828 33.21965 27.374001 33.220001L 24.552 33.220001L 24.552 37.858002C 24.552 39.085999 24.082001 40.265999 23.246 41.138C 22.423746 42.000252 21.285454 42.489948 20.094 42.493999L 17.864 42.493999L 17.864 48.414001M 37.996002 48.542L 34.950001 48.542C 32.146118 48.542683 29.872766 46.269878 29.872766 43.466C 29.872766 40.662121 32.146118 38.38932 34.950001 38.389999L 37.996002 38.389999L 37.996002 48.542ZM 37.996002 48.542C 43.952 48.542 49.776001 50.306 54.731998 53.610001L 56.268002 54.633999L 56.268002 32.299999L 54.731998 33.323997C 49.775425 36.627075 43.952332 38.389725 37.995998 38.389999L 37.996002 48.542ZM 37.996002 48.542C 37.993389 51.227852 39.093903 53.796917 41.040001 55.647999"></path></g></g></g><g id="g-root-tx_agricult_5vz8dmiq420-stroke" data-item-order="0" transform="translate(255, 39)"></g></g></g></svg>